<svg xmlns="http://www.w3.org/2000/svg" viewBox="0 0 80 50" width="80" height="50">
  <defs>
    <linearGradient id="logoGradient" x1="0%" y1="0%" x2="100%" y2="0%">
      <stop offset="0%" style="stop-color: #3c65f9; stop-opacity: 1" />
      <stop offset="100%" style="stop-color: #63d0ff; stop-opacity: 1" />
    </linearGradient>
  </defs>
  
  <g fill="url(#logoGradient)">
    <path d="M25.8,49.2c-2.4-0.9-4.3-2.8-5.2-5.2L0.3,3.9C-1,0.2,1.3-1.1,4.1,0.4L18.4,8l0,0C20.6,9,21.9,11.5,21.2,14l-4.5,16.2c-0.2,0.8,0.3,1.6,1.1,1.8c0.9,0.2,1.8-0.3,2-1.1L25.3,15c0.4-1.5,2.4-2,3.4-0.9l2.8,2.8c1,1,1,2.7,0,3.7L26,26.1c-2.3,2.3-2.3,6.1,0,8.5l5.5,5.5c2.3,2.3,6.1,2.3,8.5,0l5.5-5.5c2.3-2.3,2.3-6.1,0-8.5L40,26.1c-1-1-1-2.7,0-3.7l2.8-2.8c1-1,2.9-0.5,3.4,0.9l5.5,15.8c0.2,0.8,1.1,1.3,2,1.1c0.8-0.2,1.3-1,1.1-1.8L50.8,14c-0.7-2.5,0.6-5,2.8-6.1l14.3-7.5c2.8-1.5,5.1,0.7,3.8,4.3L51.4,44c-0.9,2.4-2.8,4.3-5.2,5.2H25.8z" />
    <path d="M48,18.5h28.3c2.1,0,3.8-1.7,3.8-3.8v0c0-2.1-1.7-3.8-3.8-3.8H48c-2.1,0-3.8,1.7-3.8,3.8v0C44.2,16.8,45.9,18.5,48,18.5z" />
  </g>
</svg>